<svg width="3241" height="1393" viewBox="0 0 3241 1393" fill="none" xmlns="http://www.w3.org/2000/svg">
<path d="M3114.56 262.5C2764.06 112 1382.65 89.8206 566.061 0V98.5C566.061 98.5 2726.55 203.11 2687.56 282C2675.45 306.5 2545.56 380.5 2332.06 357.815C2006.76 323.25 1560.06 345.931 1313.56 451.5C968.559 599.254 114.084 661.174 15.5607 763.5C-135.39 920.276 848.061 1018.21 1401.06 800.101C1811.56 638.199 2151.06 648.5 2381.06 730.5C2652.86 827.404 2940.36 694.523 3062.56 780C3123.77 822.816 2353.56 1018 1718.56 1018C1083.56 1018 974.061 1223.5 974.061 1223.5V1393C974.061 1393 1168.56 1197.3 1877.56 1197.3C2586.56 1197.3 3338.14 832.656 3229.56 730.5C3142.22 648.328 2906.56 691.157 2333.64 610.138C2027.39 566.83 1671.39 663.82 1359.19 748.878L1352.06 750.82C1010.03 843.993 237.561 810.723 237.561 780C237.561 749.668 810.124 780 1335.56 610.138C1539.31 544.268 1951.49 360.076 2332.06 407.378C3041.06 495.5 3231.4 312.669 3114.56 262.5Z" fill="#55AA0A"/>
</svg>
